<svg xmlns="http://www.w3.org/2000/svg" viewBox="0 0 640.01 479.99"><title>Plan de travail 1</title><g id="Calque_1" data-name="Calque 1"><rect width="640.01" height="479.99" style="fill:#f3f3f7;stroke:#231f20;stroke-miterlimit:10"/></g><g id="Calque_2" data-name="Calque 2"><path d="M249.45,256c1.31,36.5,31.66,66.86,68.16,68.17Z" style="fill:#b6b6b9"/><path d="M178.39,395.2H388.67l-35.41-35.4H178.39V184.92l-32.85-32.85a35,35,0,0,0-2.55,13V359.8A35.44,35.44,0,0,0,178.39,395.2ZM461.61,129.68H415.84L367.92,81.76a17.64,17.64,0,0,0-12.51-5.19H284.6a17.66,17.66,0,0,0-12.51,5.19l-47.92,47.92h-3L173.21,81.76l-25,25L466.8,425.42l25-25-11.08-11.08A35.08,35.08,0,0,0,497,359.8V165.08A35.44,35.44,0,0,0,461.61,129.68ZM354,262.53,311.06,219.6a33.06,33.06,0,0,1,8.94-1.41c18.86,0,35.41,16.55,35.41,35.4A31.6,31.6,0,0,1,354,262.53Zm26.59,26.57a68.68,68.68,0,0,0,10.25-35.51c0-38.38-32.43-70.81-70.81-70.81A68.67,68.67,0,0,0,284.48,193l-36.8-36.8L291.93,112h56.15L396,159.9a17.61,17.61,0,0,0,12.51,5.18l53.1,0V359.8H451.24Z" style="fill:#b6b6b9"/></g></svg>